<?xml version="1.0" encoding="utf-8"?>
<?xml-stylesheet type="text/xsl" href="rss1.xsl"?>
<rss version="2.0" xmlns:atom="http://www.w3.org/2005/Atom" xmlns:content="http://purl.org/rss/1.0/modules/content/" xmlns:dc="http://purl.org/dc/elements/1.1/" xmlns:media="http://search.yahoo.com/mrss/">
<channel>
 <title>Getty</title>
 <link>http://www.gettyimg.com/</link>
 <atom:link href="http://www.gettyimg.com/" rel="self" type="application/rss+xml" />

 
                <item>
                <title><![CDATA[【HD Live Performances】Entrelazados (Intertwined) Live Disney+.WEB-DL.720p-Tknobi]]></title>
                <link><![CDATA[https://sharemania.us/threads/entrelazados-intertwined-live-disney-web-dl-720p-tknobi.220557/]]></link>
                <description><![CDATA[<article>
<blockquote class="messageText SelectQuoteContainer ugc baseHtml">
<div style="text-align: center"><img src="https://i.postimg.cc/9QDs3pw4/Entrelazados-Intertwined-Live-Disney-WEB-DL-720p-Tknobi-mp4.jpg" class="bbCodeImage LbImage" alt="[​IMG]" data-url="https://i.postimg.cc/9QDs3pw4/Entrelazados-Intertwined-Live-Disney-WEB-DL-720p-Tknobi-mp4.jpg" style=""><br>
<br>
<div class="ToggleTriggerAnchor bbCodeSpoilerContainer">
<button type="button" class="button bbCodeSpoilerButton ToggleTrigger Tooltip JsOnly" data-target="> .SpoilerTarget"><span>Spoiler: <span class="SpoilerTitle">MediaInfo</span></span></button>
<div class="SpoilerTarget bbCodeSpoilerText">Format : MPEG-4<br>
Format profile : Base Media<br>
Codec ID : isom (isom/iso2/avc1/mp41)<br>
File size : 2.14 GiB<br>
Duration : 1 h 8 min<br>
Overall bit rate mode : Variable<br>
Overall bit rate : 4 468 kb/s<br>
Movie name : Disney Entrelazados Live<br>
Performer : Carolina Domenech,Kevsho,José 'El Purre' Giménez Zapiola,Manuela Menéndez,Manuel Ramos,Tatu Glikman<br>
Description : ¡Vive la experiencia de Disney Entrelazados Live! El show incluye las canciones originales “Donde voy” y “Convénceme”, covers de los años ’90 como “Seguir viviendo sin tu amor”, una selección de temas del musical Freaky Friday: A New Musical y hits musicales del momento como “Tacones Rojos” y “Vivir Así”.<br>
Recorded date : 2023<br>
Writing application : Lavf58.76.100<br>
Cover : Yes<br>
<br>
Video<br>
ID : 1<br>
Format : AVC<br>
Format/Info : Advanced Video Codec<br>
Format profile : High@L3.1<br>
Format settings : CABAC / 4 Ref Frames<br>
Format settings, CABAC : Yes<br>
Format settings, Reference frames : 4 frames<br>
Codec ID : avc1<br>
Codec ID/Info : Advanced Video Coding<br>
Duration : 1 h 8 min<br>
Bit rate mode : Variable<br>
Bit rate : 4 034 kb/s<br>
Maximum bit rate : 6 375 kb/s<br>
Width : 1 280 pixels<br>
Height : 720 pixels<br>
Display aspect ratio : 16:9<br>
Frame rate mode : Constant<br>
Frame rate : 23.976 (24000/1001) FPS<br>
Color space : YUV<br>
Chroma subsampling : 4:2:0<br>
Bit depth : 8 bits<br>
Scan type : Progressive<br>
Bits/(Pixel*Frame) : 0.183<br>
Stream size : 1.94 GiB (90%)<br>
Title : BAMTech video<br>
Color range : Limited<br>
Color primaries : BT.709<br>
Transfer characteristics : BT.709<br>
Matrix coefficients : BT.709<br>
Codec configuration box : avcC<br>
Audio #1<br>
ID : 3<br>
Format : E-AC-3<br>
Format/Info : Enhanced AC-3<br>
Commercial name : Dolby Digital Plus<br>
Codec ID : ec-3<br>
Duration : 1 h 8 min<br>
Bit rate mode : Constant<br>
Bit rate : 256 kb/s<br>
Channel(s) : 6 channels<br>
Channel layout : L R C LFE Ls Rs<br>
Sampling rate : 48.0 kHz<br>
Frame rate  : 31.250 FPS (1536 SPF)<br>
Compression mode : Lossy<br>
Stream size : 126 MiB (6%)<br>
Title : BAMTech audio / Español (Latinoamericano)<br>
Language : Spanish<br>
Service kind : Complete Main<br>
Default : Yes<br>
Alternate group : 1<br>
Audio #2<br>
ID : 4<br>
Format : AAC LC<br>
Format/Info : Advanced Audio Codec Low Complexity<br>
Codec ID : mp4a-40-2<br>
Duration : 1 h 8 min<br>
Bit rate mode : Constant<br>
Bit rate : 125 kb/s<br>
Channel(s) : 2 channels<br>
Channel layout : L R<br>
Sampling rate : 48.0 kHz<br>
Frame rate : 46.875 FPS (1024 SPF)<br>
Compression mode : Lossy<br>
Stream size : 61.6 MiB (3%)<br>
Title : BAMTech audio / Español (Latinoamericano) [Audio descriptivo]<br>
Language : Spanish<br>
Default : No<br>
Alternate group : 1<br>
Text #1<br>
ID : 5<br>
Format : Timed Text<br>
Muxing mode : sbtl<br>
Codec ID : tx3g<br>
Duration : 1 h 8 min<br>
Bit rate mode : Variable<br>
Bit rate : 59 b/s<br>
Stream size : 29.8 KiB (0%)<br>
Title : Chinese (Traditional)<br>
Language : Chinese<br>
Default : No<br>
Forced : No<br>
Alternate group : 3<br>
Text #2<br>
ID : 6<br>
Format : Timed Text<br>
Muxing mode : sbtl<br>
Codec ID : tx3g<br>
Duration : 1 h 8 min<br>
Bit rate mode : Variable<br>
Bit rate : 63 b/s<br>
Stream size : 31.8 KiB (0%)<br>
Title : Dansk<br>
Language : Danish<br>
Default : No<br>
Forced : No<br>
Alternate group : 3<br>
Text #3<br>
ID : 7<br>
Format : Timed Text<br>
Muxing mode : sbtl<br>
Codec ID : tx3g<br>
Duration : 1 h 8 min<br>
Bit rate mode : Variable<br>
Bit rate : 65 b/s<br>
Stream size : 32.6 KiB (0%)<br>
Title : Deutsch<br>
Language : German<br>
Default : No<br>
Forced : No<br>
Alternate group : 3<br>
Text #4<br>
ID : 8<br>
Format : Timed Text<br>
Muxing mode : sbtl<br>
Codec ID : tx3g<br>
Duration : 1 h 8 min<br>
Bit rate mode  : Variable<br>
Bit rate : 128 b/s<br>
Stream size : 64.2 KiB (0%)<br>
Title : English [CC]<br>
Language : English<br>
Default : No<br>
Forced : No<br>
Alternate group : 3<br>
Text #5<br>
ID : 9<br>
Format : Timed Text<br>
Muxing mode : sbtl<br>
Codec ID : tx3g<br>
Duration : 1 h 8 min<br>
Bit rate mode : Variable<br>
Bit rate : 61 b/s<br>
Stream size : 30.8 KiB (0%)<br>
Title : Español<br>
Language : Spanish<br>
Default : No<br>
Forced : No<br>
Alternate group : 3<br>
Text #6<br>
ID : 10<br>
Format : Timed Text<br>
Muxing mode : sbtl<br>
Codec ID : tx3g<br>
Duration : 1 h 8 min<br>
Bit rate mode : Variable<br>
Bit rate : 119 b/s<br>
Stream size : 59.9 KiB (0%)<br>
Title : Español (Latinoamericano) [CC]<br>
Language : Spanish<br>
Default : Yes<br>
Forced : No<br>
Alternate group : 3<br>
Text #7<br>
ID : 11<br>
Format : Timed Text<br>
Muxing mode : sbtl<br>
Codec ID : tx3g<br>
Duration : 1 h 8 min<br>
Bit rate mode : Variable<br>
Bit rate : 68 b/s<br>
Stream size : 34.0 KiB (0%)<br>
Title : Français<br>
Language : French<br>
Default : No<br>
Forced : No<br>
Alternate group : 3<br>
Text #8<br>
ID : 12<br>
Format : Timed Text<br>
Muxing mode : sbtl<br>
Codec ID : tx3g<br>
Duration : 1 h 8 min<br>
Bit rate mode : Variable<br>
Bit rate : 93 b/s<br>
Stream size : 47.0 KiB (0%)<br>
Title : Greek<br>
Language : Greek<br>
Default : No<br>
Forced : No<br>
Alternate group : 3<br>
Text #9<br>
ID : 13<br>
Format : Timed Text<br>
Muxing mode : sbtl<br>
Codec ID : tx3g<br>
Duration : 1 h 8 min<br>
Bit rate mode : Variable<br>
Bit rate : 31 b/s<br>
Stream size : 15.7 KiB (0%)<br>
Title : Italiano<br>
Language : Italian<br>
Default : No<br>
Forced : No<br>
Alternate group : 3<br>
Text #10<br>
ID : 14<br>
Format : Timed Text<br>
Muxing mode : sbtl<br>
Codec ID : tx3g<br>
Duration : 1 h 8 min<br>
Bit rate mode : Variable<br>
Bit rate : 50 b/s<br>
Stream size : 25.3 KiB (0%)<br>
Title : Japanese<br>
Language : Japanese<br>
Default : No<br>
Forced : No<br>
Alternate group : 3<br>
Text #11<br>
ID : 15<br>
Format : Timed Text<br>
Muxing mode : sbtl<br>
Codec ID : tx3g<br>
Duration : 1 h 8 min<br>
Bit rate mode : Variable<br>
Bit rate : 58 b/s<br>
Stream size : 29.0 KiB (0%)<br>
Title : Korean<br>
Language : Korean<br>
Default : No<br>
Forced : No<br>
Alternate group : 3<br>
Text #12<br>
ID : 16<br>
Format : Timed Text<br>
Muxing mode : sbtl<br>
Codec ID : tx3g<br>
Duration : 1 h 8 min<br>
Bit rate mode : Variable<br>
Bit rate : 62 b/s<br>
Stream size : 31.3 KiB (0%)<br>
Title : Magyar<br>
Language : Hungarian<br>
Default : No<br>
Forced : No<br>
Alternate group : 3<br>
Text #13<br>
ID : 17<br>
Format : Timed Text<br>
Muxing mode : sbtl<br>
Codec ID : tx3g<br>
Duration : 1 h 8 min<br>
Bit rate mode : Variable<br>
Bit rate : 58 b/s<br>
Stream size : 29.1 KiB (0%)<br>
Title : Nederlands<br>
Language : Dutch<br>
Default : No<br>
Forced : No<br>
Alternate group : 3<br>
Text #14<br>
ID : 18<br>
Format : Timed Text<br>
Muxing mode : sbtl<br>
Codec ID : tx3g<br>
Duration : 1 h 8 min<br>
Bit rate mode : Variable<br>
Bit rate : 59 b/s<br>
Stream size : 29.8 KiB (0%)<br>
Title : Norsk<br>
Language : Norwegian<br>
Default : No<br>
Forced : No<br>
Alternate group : 3<br>
Text #15<br>
ID : 19<br>
Format : Timed Text<br>
Muxing mode : sbtl<br>
Codec ID : tx3g<br>
Duration : 1 h 8 min<br>
Bit rate mode : Variable<br>
Bit rate : 60 b/s<br>
Stream size : 30.2 KiB (0%)<br>
Title : Polski<br>
Language : Polish<br>
Default : No<br>
Forced : No<br>
Alternate group : 3<br>
Text #16<br>
ID : 20<br>
Format : Timed Text<br>
Muxing mode : sbtl<br>
Codec ID : tx3g<br>
Duration : 1 h 8 min<br>
Bit rate mode : Variable<br>
Bit rate : 63 b/s<br>
Stream size : 31.7 KiB (0%)<br>
Title : Português<br>
Language : Portuguese<br>
Default : No<br>
Forced : No<br>
Alternate group : 3<br>
Text #17<br>
ID : 21<br>
Format : Timed Text<br>
Muxing mode : sbtl<br>
Codec ID : tx3g<br>
Duration : 1 h 8 min<br>
Bit rate mode : Variable<br>
Bit rate : 64 b/s<br>
Stream size : 32.3 KiB (0%)<br>
Title : Português (Brasil)<br>
Language : Portuguese<br>
Default : No<br>
Forced : No<br>
Alternate group : 3<br>
Text #18<br>
ID : 22<br>
Format : Timed Text<br>
Muxing mode : sbtl<br>
Codec ID : tx3g<br>
Duration : 1 h 8 min<br>
Bit rate mode : Variable<br>
Bit rate : 32 b/s<br>
Stream size : 16.0 KiB (0%)<br>
Title : Română<br>
Language : Romanian<br>
Default : No<br>
Forced : No<br>
Alternate group : 3<br>
Text #19<br>
ID : 23<br>
Format : Timed Text<br>
Muxing mode : sbtl<br>
Codec ID : tx3g<br>
Duration : 1 h 8 min<br>
Bit rate mode : Variable<br>
Bit rate : 61 b/s<br>
Stream size : 30.9 KiB (0%)<br>
Title : Slovenčina<br>
Language : Slovak<br>
Default : No<br>
Forced : No<br>
Alternate group : 3<br>
Text #20<br>
ID : 24<br>
Format : Timed Text<br>
Muxing mode : sbtl<br>
Codec ID : tx3g<br>
Duration : 1 h 8 min<br>
Bit rate mode : Variable<br>
Bit rate : 31 b/s<br>
Stream size : 15.7 KiB (0%)<br>
Title : Suomi<br>
Language : Finnish<br>
Default : No<br>
Forced : No<br>
Alternate group : 3<br>
Text #21<br>
ID : 25<br>
Format : Timed Text<br>
Muxing mode : sbtl<br>
Codec ID : tx3g<br>
Duration : 1 h 8 min<br>
Bit rate mode : Variable<br>
Bit rate : 65 b/s<br>
Stream size : 32.9 KiB (0%)<br>
Title : Svenska<br>
Language : Swedish<br>
Default : No<br>
Forced : No<br>
Alternate group : 3<br>
Text #22<br>
ID : 26<br>
Format : Timed Text<br>
Muxing mode : sbtl<br>
Codec ID : tx3g<br>
Duration : 1 h 8 min<br>
Bit rate mode : Variable<br>
Bit rate : 65 b/s<br>
Stream size : 32.7 KiB (0%)<br>
Title : Türkçe<br>
Language : Turkish<br>
Default : No<br>
Forced : No<br>
Alternate group : 3<br>
Text #23<br>
ID : 27<br>
Format : Timed Text<br>
Muxing mode : sbtl<br>
Codec ID : tx3g<br>
Duration : 1 h 8 min<br>
Bit rate mode : Variable<br>
Bit rate : 60 b/s<br>
Stream size : 30.0 KiB (0%)<br>
Title : Čeština<br>
Language : Czech<br>
Default : No<br>
Forced : No<br>
Alternate group : 3</div>
</div><br>
<div class="bbCodeBlock bbCodeVfcHH HiddenContent">
<div class="attribution type">Hidden Content:</div>
<blockquote>You must either reply or click 'Like' to see the hidden information contained here.</blockquote>
</div></div>
<div class="messageTextEndMarker">&nbsp;</div>
</blockquote>
</article>]]></description>
                <author><![CDATA[tknobi]]></author>
                </item>

                
                <item>
                <title><![CDATA[【Albums (lossless)】PACK - Kylie Minogue - Kylie + Enjoy Yourself + Rhythm of Love + Let's Get to It (2015 Remastered Deluxe) [CDRip FLAC 16 bits/44.1 kHz]]]></title>
                <link><![CDATA[https://sharemania.us/threads/kylie-minogue-kylie-enjoy-yourself-rhythm-of-love-lets-get-to-it-2015-remastered-deluxe-cdrip-flac-16-bits-44-1-khz.220559/]]></link>
                <description><![CDATA[<article>
<blockquote class="messageText SelectQuoteContainer ugc baseHtml">
<div style="text-align: center"><br>
Requested by <a href="https://sharemania.us/members/155981/" class="username" data-user="155981, @filipecroft2022">@filipecroft2022</a><br>
<br>
<img src="https://i.imgur.com/SOk7Y7Q.jpg" class="bbCodeImage LbImage" alt="[​IMG]" data-url="https://i.imgur.com/SOk7Y7Q.jpg" style=""><br>
<img src="https://i.imgur.com/5TGVSBQ.jpg" class="bbCodeImage LbImage" alt="[​IMG]" data-url="https://i.imgur.com/5TGVSBQ.jpg" style=""><br>
<img src="https://i.imgur.com/pHq4lpr.jpg" class="bbCodeImage LbImage" alt="[​IMG]" data-url="https://i.imgur.com/pHq4lpr.jpg" style=""><br>
<img src="https://i.imgur.com/zGn2EB7.jpg" class="bbCodeImage LbImage" alt="[​IMG]" data-url="https://i.imgur.com/zGn2EB7.jpg" style=""><br>
<div class="bbCodeBlock bbCodeVfcHH HiddenContent">
<div class="attribution type">Hidden Content:</div>
<blockquote>You must either reply or click 'Like' to see the hidden information contained here.</blockquote>
</div></div>
<div class="messageTextEndMarker">&nbsp;</div>
</blockquote>
</article>]]></description>
                <author><![CDATA[DETOXIC]]></author>
                </item>

                
                <item>
                <title><![CDATA[【Requests】[REQ AUD] - Destiny's Child - Emotion (Promo)]]></title>
                <link><![CDATA[https://sharemania.us/threads/destinys-child-emotion-promo.220558/]]></link>
                <description><![CDATA[<article>
<blockquote class="messageText SelectQuoteContainer ugc baseHtml">
Emotion (Al Green Remix)<br>
Emotion (Calderone Dub Mix - Lead Vocals Up)<br>
Emotion (Errol 'Poppi' Mccalla Mix - Lead Vocals Up)<br>
Emotion (NuPrise Mix)<br>
<br>
My CD were damage.<img src="styles/default/xenforo/smilies/cry-48.png" class="mceSmilie" alt=":cry:" title="Cry    :cry:">
<div class="messageTextEndMarker">&nbsp;</div>
</blockquote>
</article>]]></description>
                <author><![CDATA[darkboy12]]></author>
                </item>

                </channel></rss>